<svg version="1.1" id="Layer_1" xmlns="http://www.w3.org/2000/svg" xmlns:xlink="http://www.w3.org/1999/xlink" x="0px" y="0px"
	 width="100%" viewBox="0 0 256 256" enable-background="new 0 0 256 256" xml:space="preserve">
<path fill="#000000" opacity="1.000000" stroke="none" 
	d="
M1.000000,62.000000 
	C1.000000,41.686989 1.000000,21.373978 1.000000,1.030483 
	C86.227715,1.030483 171.455444,1.030483 257.000000,1.030483 
	C257.000000,41.020336 257.000000,81.041512 256.641785,121.496597 
	C254.491959,118.248962 252.890778,114.458496 250.862625,110.912201 
	C248.044754,105.985023 241.513153,104.039711 236.589600,106.354294 
	C231.574310,108.712006 229.089386,114.771782 230.965988,120.234665 
	C232.093689,123.517448 233.614578,126.690453 234.465225,130.038208 
	C236.707108,138.861237 232.744522,144.032532 223.717010,143.953796 
	C217.927460,143.903290 212.134293,143.405396 206.363022,142.883698 
	C205.269501,142.784851 203.803268,141.871506 203.316208,140.920547 
	C201.812927,137.985458 200.089554,134.942902 199.608505,131.766876 
	C199.134613,128.638000 199.681595,125.172363 200.638290,122.123611 
	C200.913605,121.246292 204.143158,121.203789 206.040817,120.942711 
	C218.612549,119.213081 227.379684,106.564987 224.205856,94.321434 
	C220.212372,78.915810 216.071091,63.546898 211.821548,48.209816 
	C209.031555,38.140358 200.574509,32.034317 189.926987,32.012142 
	C182.604431,31.996891 175.281891,31.982450 167.904572,31.624207 
	C166.432388,30.219780 164.925049,29.259216 163.611282,28.082523 
	C147.681900,13.815249 128.585007,7.179208 107.654671,6.228874 
	C99.004395,5.836112 90.065857,7.244983 81.563835,9.177843 
	C68.115456,12.235210 55.780769,18.040668 45.786263,27.991440 
	C45.810242,28.036926 45.875786,27.957676 45.563408,27.977951 
	C44.532276,28.362637 43.813519,28.727051 42.762615,28.925606 
	C39.830727,26.463810 36.951374,26.233269 34.546089,28.648321 
	C31.475338,31.731546 34.256927,34.258980 35.675560,36.924431 
	C35.258114,37.676228 35.118565,38.272026 35.020912,38.832298 
	C35.062809,38.796776 34.970474,38.737244 34.669777,38.917427 
	C25.641926,48.916168 19.722942,60.200115 16.435944,72.782066 
	C14.535954,70.322929 12.625322,68.211540 11.289757,65.783791 
	C8.879099,61.401756 5.531299,60.266693 1.000000,62.000000 
z"/>
<path fill="#4F261F" opacity="1.000000" stroke="none" 
	d="
M167.959335,31.967648 
	C175.281891,31.982450 182.604431,31.996891 189.926987,32.012142 
	C200.574509,32.034317 209.031555,38.140358 211.821548,48.209816 
	C216.071091,63.546898 220.212372,78.915810 224.205856,94.321434 
	C227.379684,106.564987 218.612549,119.213081 206.040817,120.942711 
	C204.143158,121.203789 200.913605,121.246292 200.638290,122.123611 
	C199.681595,125.172363 199.134613,128.638000 199.608505,131.766876 
	C200.089554,134.942902 201.812927,137.985458 203.316208,140.920547 
	C203.803268,141.871506 205.269501,142.784851 206.363022,142.883698 
	C212.134293,143.405396 217.927460,143.903290 223.717010,143.953796 
	C232.744522,144.032532 236.707108,138.861237 234.465225,130.038208 
	C233.614578,126.690453 232.093689,123.517448 230.965988,120.234665 
	C229.089386,114.771782 231.574310,108.712006 236.589600,106.354294 
	C241.513153,104.039711 248.044754,105.985023 250.862625,110.912201 
	C252.890778,114.458496 254.491959,118.248962 256.641785,121.965256 
	C257.000000,129.687576 257.000000,137.375168 256.648682,145.559250 
	C255.301804,147.729263 254.336838,149.421860 253.305801,151.073196 
	C246.195694,162.460938 230.658051,168.444809 216.102951,165.573425 
	C213.630295,165.085632 211.030609,165.241745 208.696838,165.111908 
	C208.360764,166.242264 208.138504,166.582047 208.190948,166.872131 
	C210.223145,178.109100 212.226425,189.351761 214.347946,200.572021 
	C217.065262,214.943344 213.085846,227.813965 197.805847,233.686325 
	C196.610596,234.145691 195.346573,235.797653 195.084290,237.091858 
	C193.297470,245.908875 188.492050,250.561356 179.368530,251.885498 
	C163.872513,254.134506 161.501846,252.547684 161.054382,239.269211 
	C160.961441,236.511108 160.440750,234.956650 157.192322,234.918808 
	C153.828568,234.879654 152.739029,236.254303 152.962341,239.389801 
	C153.115753,241.543716 152.845779,243.728882 153.015991,245.880234 
	C153.337799,249.947845 151.250809,251.781036 147.502777,251.920120 
	C143.511688,252.068207 139.493759,252.191803 135.517700,251.906326 
	C126.171776,251.235306 120.875237,246.172028 118.869621,236.990768 
	C118.548340,235.519989 116.694984,233.928268 115.168861,233.250961 
	C105.958931,229.163452 99.414726,222.608215 99.211884,212.341141 
	C99.051880,204.242966 100.973663,196.103683 102.058868,187.594757 
	C103.777924,178.744919 105.314163,170.263260 107.066216,161.826431 
	C108.881676,153.084320 110.018120,144.046936 113.165749,135.792374 
	C115.118538,130.671204 115.521011,126.236778 114.444695,121.027641 
	C113.329239,120.958839 112.187607,120.942192 111.059349,120.810684 
	C96.143959,119.072281 87.448715,107.165436 91.100212,92.991570 
	C94.981453,77.925896 99.103615,62.918468 103.379448,47.959606 
	C106.202766,38.082344 114.677742,32.023643 124.965965,32.002491 
	C139.297058,31.973030 153.628204,31.977629 167.959335,31.967648 
M199.132874,101.463661 
	C199.132874,104.865448 199.132874,108.267235 199.132874,111.557480 
	C210.935272,112.708633 217.734238,105.154167 214.990891,94.773117 
	C211.128204,80.156418 207.090622,65.585213 203.027603,51.022507 
	C201.228821,44.575279 197.212265,40.914227 191.044754,40.873367 
	C168.726501,40.725491 146.406174,40.790634 124.087303,40.906128 
	C118.035172,40.937447 113.881004,44.340248 112.255470,49.944527 
	C107.719696,65.582306 103.341103,81.273239 99.327187,97.051750 
	C97.174843,105.512527 105.989731,113.402931 114.928452,111.057510 
	C114.928452,109.193092 114.927231,107.217949 114.928680,105.242805 
	C114.934067,97.913322 114.697365,90.569427 115.130814,83.265312 
	C115.229309,81.605606 117.650948,80.083755 119.003288,78.498451 
	C120.389816,80.038094 122.043411,81.423035 123.059578,83.177216 
	C123.639923,84.179062 123.189384,85.782486 123.190002,87.115044 
	C123.195305,98.609047 123.068779,110.104965 123.239723,121.596474 
	C123.389236,131.646759 130.507751,138.123550 139.926254,137.141602 
	C146.783386,136.426682 151.166763,131.606415 152.949554,123.379379 
	C153.313721,121.698845 154.622971,119.896477 156.028473,118.902206 
	C156.761780,118.383469 159.138626,119.089203 159.899277,119.984398 
	C160.863785,121.119507 161.039307,122.987694 161.382889,124.576981 
	C162.958969,131.867157 167.778473,136.562347 174.387573,137.157166 
	C183.806931,138.004913 190.730896,131.481445 190.838181,121.357765 
	C190.968796,109.032204 190.899002,96.704201 190.862656,84.377419 
	C190.854065,81.462540 191.313553,78.686760 194.804062,78.581886 
	C198.628677,78.466980 199.174942,81.359489 199.143326,84.481789 
	C199.089355,89.811775 199.131393,95.142746 199.132874,101.463661 
M111.705231,219.710220 
	C113.806755,221.291931 115.908272,222.873642 118.649315,224.936691 
	C118.855583,222.587112 119.014725,221.601471 119.017357,220.615417 
	C119.041397,211.615662 118.964241,202.614914 119.075653,193.616440 
	C119.127632,189.418213 122.222382,186.710190 124.781158,188.640244 
	C126.326958,189.806183 127.484192,192.444397 127.544670,194.459259 
	C127.829544,203.950592 127.667488,213.455109 127.680565,222.954910 
	C127.686073,226.954239 127.512589,230.969666 127.808075,234.949005 
	C128.248169,240.876007 132.337433,243.223251 140.419998,242.958511 
	C146.807678,242.749298 144.065842,237.982910 144.122208,235.231476 
	C144.401993,221.570755 144.248749,207.901276 144.259888,194.234879 
	C144.262390,191.155655 144.968124,188.180832 148.664032,188.212799 
	C152.402191,188.245148 152.912918,191.295334 152.911880,194.340134 
	C152.910400,198.673386 152.915268,203.006622 152.915848,207.339874 
	C152.916687,213.436295 152.916077,219.532730 152.916077,225.673309 
	C156.005432,225.673309 158.260513,225.673309 161.139511,225.673309 
	C161.139511,223.582474 161.138412,221.798370 161.139709,220.014267 
	C161.146118,211.181152 160.924866,202.337189 161.344421,193.523712 
	C161.432861,191.666000 163.629028,188.711700 165.279755,188.379730 
	C168.505417,187.731049 169.687180,190.568665 169.802704,193.550430 
	C169.854294,194.881943 169.830582,196.216629 169.830841,197.549866 
	C169.833420,211.216263 169.899597,224.883224 169.784866,238.548645 
	C169.758896,241.641876 170.515106,242.967209 173.945023,243.003891 
	C183.490219,243.105972 186.656189,240.276245 186.693604,230.721893 
	C186.739944,218.888977 186.697678,207.055710 186.711853,195.222626 
	C186.715668,192.031281 186.393555,188.134048 190.958038,188.262924 
	C195.425003,188.389038 195.002853,192.282440 195.005676,195.460388 
	C195.013062,203.793564 194.994202,212.126785 195.024506,220.459854 
	C195.028961,221.684525 195.244278,222.908417 195.372925,224.245895 
	C204.154556,220.879929 207.725571,213.210907 205.756821,202.802124 
	C203.132050,188.925003 200.556778,175.038467 197.907776,161.166016 
	C196.519592,153.896271 195.019485,146.647919 193.427704,138.677765 
	C180.117111,149.110092 168.195496,148.000351 157.031769,136.682083 
	C145.762573,148.120834 133.833069,148.955917 121.120850,139.111389 
	C120.611008,140.442123 120.119347,141.317657 119.940163,142.253052 
	C115.938660,163.142151 111.894569,184.023727 108.053764,204.942551 
	C107.129311,209.977539 107.795288,214.935440 111.705231,219.710220 
M241.325760,114.822441 
	C241.124603,116.367989 240.496063,118.007858 240.811996,119.439278 
	C241.452164,122.339798 242.821808,125.075745 243.508011,127.970276 
	C246.973206,142.587158 239.063919,152.689362 224.031754,152.898575 
	C221.886307,152.928436 219.737732,152.441208 217.586288,152.395233 
	C213.549469,152.308990 209.509506,152.370407 205.470840,152.370407 
	C205.292343,152.835190 205.113861,153.299973 204.935364,153.764771 
	C206.045700,154.486237 207.098877,155.706100 208.276489,155.841202 
	C212.890594,156.370544 217.568817,157.002975 222.175766,156.746048 
	C226.753159,156.490753 231.544678,155.908737 235.771057,154.261139 
	C252.376541,147.787689 250.176208,125.930969 241.325760,114.822441 
M125.006355,212.500198 
	C125.006355,221.374588 125.006355,230.248993 125.006355,239.123383 
	C125.241753,239.116379 125.477150,239.109390 125.712547,239.102402 
	C125.712547,223.633713 125.712547,208.165039 125.712547,192.696365 
	C125.477158,192.694473 125.241768,192.692581 125.006378,192.690689 
	C125.006378,198.960587 125.006378,205.230499 125.006355,212.500198 
M117.006371,96.500290 
	C117.006371,101.044273 117.006371,105.588257 117.006371,110.132240 
	C117.335457,110.120644 117.664551,110.109039 117.993637,110.097443 
	C117.993637,105.480843 117.993629,100.864235 117.993629,96.247627 
	C117.993629,91.730934 117.993637,87.214241 117.993637,82.697548 
	C117.664558,82.697655 117.335472,82.697762 117.006393,82.697876 
	C117.006393,86.967903 117.006393,91.237923 117.006371,96.500290 
z"/>
<path fill="#000000" opacity="1.000000" stroke="none" 
	d="
M101.970840,187.982651 
	C100.973663,196.103683 99.051880,204.242966 99.211884,212.341141 
	C99.414726,222.608215 105.958931,229.163452 115.168861,233.250961 
	C116.694984,233.928268 118.548340,235.519989 118.869621,236.990768 
	C120.875237,246.172028 126.171776,251.235306 135.517700,251.906326 
	C139.493759,252.191803 143.511688,252.068207 147.502777,251.920120 
	C151.250809,251.781036 153.337799,249.947845 153.015991,245.880234 
	C152.845779,243.728882 153.115753,241.543716 152.962341,239.389801 
	C152.739029,236.254303 153.828568,234.879654 157.192322,234.918808 
	C160.440750,234.956650 160.961441,236.511108 161.054382,239.269211 
	C161.501846,252.547684 163.872513,254.134506 179.368530,251.885498 
	C188.492050,250.561356 193.297470,245.908875 195.084290,237.091858 
	C195.346573,235.797653 196.610596,234.145691 197.805847,233.686325 
	C213.085846,227.813965 217.065262,214.943344 214.347946,200.572021 
	C212.226425,189.351761 210.223145,178.109100 208.190948,166.872131 
	C208.138504,166.582047 208.360764,166.242264 208.696838,165.111908 
	C211.030609,165.241745 213.630295,165.085632 216.102951,165.573425 
	C230.658051,168.444809 246.195694,162.460938 253.305801,151.073196 
	C254.336838,149.421860 255.301804,147.729263 256.648682,146.027878 
	C257.000000,182.966873 257.000000,219.933762 257.000000,256.950317 
	C171.776199,256.950317 86.552376,256.950317 1.000000,256.950317 
	C1.000000,216.646362 1.000000,176.291840 1.353961,135.497360 
	C6.183391,143.321991 10.371543,151.807938 18.997095,156.790039 
	C19.466049,157.060913 19.906025,157.953598 19.838924,158.491959 
	C19.207142,163.560867 18.531698,168.627838 17.651957,173.657440 
	C17.553820,174.218506 16.153360,174.773254 15.281318,174.943115 
	C6.759045,176.603149 4.579276,179.948608 6.681149,188.461411 
	C8.707170,196.667007 10.809248,204.853775 12.856148,213.054260 
	C14.825272,220.943192 17.329296,228.173996 10.880149,236.167313 
	C5.452933,242.893997 9.162217,247.953873 18.025213,247.973999 
	C33.166470,248.008362 48.308605,247.892685 63.448940,248.015747 
	C73.562508,248.097931 74.684692,244.790939 71.627907,235.579025 
	C71.127281,234.070358 70.075180,232.562668 68.880104,231.503357 
	C66.168129,229.099426 65.788040,226.607285 66.697182,223.068665 
	C70.034355,210.079391 72.962349,196.985001 76.405731,184.085114 
	C84.957977,186.904327 93.283791,188.659836 101.970840,187.982651 
M244.608170,246.954391 
	C250.027252,244.955139 250.348557,242.952759 247.134354,235.772400 
	C247.785400,232.641953 249.020767,228.611008 247.530457,226.598511 
	C244.343506,222.294937 241.300476,226.795166 238.353058,228.549896 
	C235.375854,226.187103 232.314880,223.086319 228.691925,226.526184 
	C224.713501,230.303543 229.392044,232.931198 230.699738,235.893036 
	C229.840546,238.977219 224.865829,240.960144 228.531586,245.016205 
	C232.613525,249.532776 235.540802,244.838776 238.374893,243.736877 
	C240.486298,244.971619 242.165649,245.953690 244.608170,246.954391 
z"/>
<path fill="#50261E" opacity="1.000000" stroke="none" 
	d="
M76.044365,183.930176 
	C72.962349,196.985001 70.034355,210.079391 66.697182,223.068665 
	C65.788040,226.607285 66.168129,229.099426 68.880104,231.503357 
	C70.075180,232.562668 71.127281,234.070358 71.627907,235.579025 
	C74.684692,244.790939 73.562508,248.097931 63.448940,248.015747 
	C48.308605,247.892685 33.166470,248.008362 18.025213,247.973999 
	C9.162217,247.953873 5.452933,242.893997 10.880149,236.167313 
	C17.329296,228.173996 14.825272,220.943192 12.856148,213.054260 
	C10.809248,204.853775 8.707170,196.667007 6.681149,188.461411 
	C4.579276,179.948608 6.759045,176.603149 15.281318,174.943115 
	C16.153360,174.773254 17.553820,174.218506 17.651957,173.657440 
	C18.531698,168.627838 19.207142,163.560867 19.838924,158.491959 
	C19.906025,157.953598 19.466049,157.060913 18.997095,156.790039 
	C10.371543,151.807938 6.183391,143.321991 1.353961,135.028702 
	C1.000000,110.979103 1.000000,86.958214 1.000000,62.468658 
	C5.531299,60.266693 8.879099,61.401756 11.289757,65.783791 
	C12.625322,68.211540 14.535954,70.322929 16.477264,73.144089 
	C20.049801,78.489380 23.142736,83.416908 26.721739,87.961647 
	C27.915621,89.477684 30.306620,90.737755 32.231594,90.862602 
	C38.027866,91.238564 43.868423,90.866188 49.682880,91.056053 
	C52.433598,91.145874 54.166782,90.358154 55.777428,87.992554 
	C61.101498,80.172951 66.574883,72.442947 72.328842,64.937599 
	C73.581139,63.304131 76.236229,62.746113 78.245232,61.692776 
	C79.285042,63.706055 81.201721,65.708138 81.227577,67.734360 
	C81.458908,85.858521 81.407791,103.987129 81.336426,122.114021 
	C81.284149,135.390656 76.139755,146.400177 65.513023,154.359772 
	C62.319843,156.751511 61.426994,159.124588 62.023811,162.630569 
	C62.711628,166.671188 63.391071,170.713226 64.058678,174.663055 
	C73.102654,175.664932 75.222473,177.343811 76.044365,183.930176 
M11.868093,82.581131 
	C8.203897,80.131783 9.892149,83.935555 9.885242,84.565857 
	C9.757453,96.227119 9.735783,107.890579 9.824094,119.552559 
	C9.850412,123.028053 9.785581,126.622910 10.609741,129.953415 
	C14.482642,145.604263 28.600473,155.462479 44.533073,153.962875 
	C59.769188,152.528839 71.737373,139.732513 72.230553,123.599670 
	C72.637619,110.283333 72.358902,96.945770 72.345863,83.617645 
	C72.345192,82.928474 71.985100,82.239647 71.598763,80.858711 
	C67.554611,86.484070 64.179497,91.634315 60.283638,96.354782 
	C58.889946,98.043457 56.275211,99.572319 54.153015,99.663330 
	C45.505188,100.034142 36.820660,100.064156 28.176477,99.654228 
	C25.925322,99.547478 23.218788,97.870880 21.684540,96.086960 
	C18.224562,92.063950 15.366563,87.523216 11.868093,82.581131 
M57.046749,182.599930 
	C55.497169,175.555237 53.947586,168.510544 52.562134,162.212006 
	C44.714951,162.212006 37.036896,162.212006 29.137062,162.212006 
	C28.761854,165.152588 28.358494,168.606094 27.875122,172.048355 
	C26.314434,183.162567 26.303085,183.160980 15.300072,184.411118 
	C18.546663,197.443039 21.753401,210.437225 25.077047,223.401459 
	C25.317518,224.339432 26.421095,225.049271 27.101864,225.882736 
	C28.351500,227.412643 30.898394,229.452652 30.544796,230.387070 
	C29.863644,232.187103 27.671972,233.573502 25.854456,234.737640 
	C24.279263,235.746597 22.355379,236.211151 20.585609,236.916336 
	C20.728596,237.248764 20.871582,237.581207 21.014566,237.913635 
	C34.416710,237.913635 47.818855,237.913635 61.220997,237.913635 
	C61.342903,237.520386 61.464813,237.127136 61.586720,236.733887 
	C59.727280,236.109146 57.695175,235.770279 56.056259,234.780411 
	C54.368168,233.760864 52.126934,232.257111 51.874779,230.685013 
	C51.657089,229.327789 53.850609,227.543808 55.062767,226.015594 
	C55.600494,225.337677 56.756042,224.929993 56.937527,224.221878 
	C60.329487,210.987061 63.616982,197.725464 66.911446,184.529312 
	C63.493298,184.010239 60.590496,183.569427 57.046749,182.599930 
z"/>
<path fill="#F8D6F6" opacity="1.000000" stroke="none" 
	d="
M76.405731,184.085114 
	C75.222473,177.343811 73.102654,175.664932 64.058678,174.663055 
	C63.391071,170.713226 62.711628,166.671188 62.023811,162.630569 
	C61.426994,159.124588 62.319843,156.751511 65.513023,154.359772 
	C76.139755,146.400177 81.284149,135.390656 81.336426,122.114021 
	C81.407791,103.987129 81.458908,85.858521 81.227577,67.734360 
	C81.201721,65.708138 79.285042,63.706055 78.245232,61.692776 
	C76.236229,62.746113 73.581139,63.304131 72.328842,64.937599 
	C66.574883,72.442947 61.101498,80.172951 55.777428,87.992554 
	C54.166782,90.358154 52.433598,91.145874 49.682880,91.056053 
	C43.868423,90.866188 38.027866,91.238564 32.231594,90.862602 
	C30.306620,90.737755 27.915621,89.477684 26.721739,87.961647 
	C23.142736,83.416908 20.049801,78.489380 16.725832,73.349236 
	C19.722942,60.200115 25.641926,48.916168 35.164764,39.053547 
	C35.614140,39.739552 34.992302,40.463165 34.975014,41.200939 
	C34.929539,43.141888 35.147003,45.088997 35.259739,47.033653 
	C37.325485,46.842789 39.454964,46.892033 41.432072,46.367237 
	C42.543606,46.072193 43.403507,44.829147 44.376770,44.013187 
	C44.358936,44.576702 44.341103,45.140217 44.323269,45.703728 
	C47.215137,46.226299 51.185371,48.198738 52.797031,47.000046 
	C57.665321,43.379185 52.052940,40.695992 50.644043,37.597523 
	C51.276787,36.900703 52.113220,36.376789 52.332951,35.663029 
	C52.989082,33.531689 54.391846,30.909710 53.689903,29.242908 
	C52.520378,26.465807 49.744427,26.859026 47.329487,28.521090 
	C47.064533,28.703442 46.296814,28.155287 45.762283,27.945950 
	C55.780769,18.040668 68.115456,12.235210 81.563835,9.177843 
	C90.065857,7.244983 99.004395,5.836112 107.654671,6.228874 
	C128.585007,7.179208 147.681900,13.815249 163.611282,28.082523 
	C164.925049,29.259216 166.432388,30.219780 167.904572,31.624207 
	C153.628204,31.977629 139.297058,31.973030 124.965965,32.002491 
	C114.677742,32.023643 106.202766,38.082344 103.379448,47.959606 
	C99.103615,62.918468 94.981453,77.925896 91.100212,92.991570 
	C87.448715,107.165436 96.143959,119.072281 111.059349,120.810684 
	C112.187607,120.942192 113.329239,120.958839 114.444695,121.027641 
	C115.521011,126.236778 115.118538,130.671204 113.165749,135.792374 
	C110.018120,144.046936 108.881676,153.084320 107.066216,161.826431 
	C105.314163,170.263260 103.777924,178.744919 102.058868,187.594757 
	C93.283791,188.659836 84.957977,186.904327 76.405731,184.085114 
z"/>
<path fill="#502822" opacity="1.000000" stroke="none" 
	d="
M45.786263,27.991438 
	C46.296814,28.155287 47.064533,28.703442 47.329487,28.521090 
	C49.744427,26.859026 52.520378,26.465807 53.689903,29.242908 
	C54.391846,30.909710 52.989082,33.531689 52.332951,35.663029 
	C52.113220,36.376789 51.276787,36.900703 50.644043,37.597523 
	C52.052940,40.695992 57.665321,43.379185 52.797031,47.000046 
	C51.185371,48.198738 47.215137,46.226299 44.323269,45.703728 
	C44.341103,45.140217 44.358936,44.576702 44.376770,44.013187 
	C43.403507,44.829147 42.543606,46.072193 41.432072,46.367237 
	C39.454964,46.892033 37.325485,46.842789 35.259739,47.033653 
	C35.147003,45.088997 34.929539,43.141888 34.975014,41.200939 
	C34.992302,40.463165 35.614140,39.739552 35.465462,38.873363 
	C34.970474,38.737244 35.062809,38.796776 35.064766,39.285202 
	C35.924908,39.190147 36.783089,38.606663 37.641270,38.023178 
	C37.078667,37.604927 36.516064,37.186680 35.953461,36.768433 
	C34.256927,34.258980 31.475338,31.731546 34.546089,28.648321 
	C36.951374,26.233269 39.830727,26.463810 42.748379,29.331081 
	C43.871780,30.098021 44.677273,30.293625 45.482765,30.489231 
	C45.613773,29.645380 45.744778,28.801527 45.875786,27.957676 
	C45.875786,27.957676 45.810242,28.036926 45.786263,27.991438 
z"/>
<path fill="#F8D6F6" opacity="1.000000" stroke="none" 
	d="
M45.563408,27.977951 
	C45.744778,28.801527 45.613773,29.645380 45.482765,30.489231 
	C44.677273,30.293625 43.871780,30.098021 43.080524,29.496941 
	C43.813519,28.727051 44.532276,28.362637 45.563408,27.977951 
z"/>
<path fill="#F8D6F6" opacity="1.000000" stroke="none" 
	d="
M35.675560,36.924431 
	C36.516064,37.186680 37.078667,37.604927 37.641270,38.023178 
	C36.783089,38.606663 35.924908,39.190147 35.022869,39.320728 
	C35.118565,38.272026 35.258114,37.676228 35.675560,36.924431 
z"/>
<path fill="#BE7D67" opacity="1.000000" stroke="none" 
	d="
M199.132980,100.968475 
	C199.131393,95.142746 199.089355,89.811775 199.143326,84.481789 
	C199.174942,81.359489 198.628677,78.466980 194.804062,78.581886 
	C191.313553,78.686760 190.854065,81.462540 190.862656,84.377419 
	C190.899002,96.704201 190.968796,109.032204 190.838181,121.357765 
	C190.730896,131.481445 183.806931,138.004913 174.387573,137.157166 
	C167.778473,136.562347 162.958969,131.867157 161.382889,124.576981 
	C161.039307,122.987694 160.863785,121.119507 159.899277,119.984398 
	C159.138626,119.089203 156.761780,118.383469 156.028473,118.902206 
	C154.622971,119.896477 153.313721,121.698845 152.949554,123.379379 
	C151.166763,131.606415 146.783386,136.426682 139.926254,137.141602 
	C130.507751,138.123550 123.389236,131.646759 123.239723,121.596474 
	C123.068779,110.104965 123.195305,98.609047 123.190002,87.115044 
	C123.189384,85.782486 123.639923,84.179062 123.059578,83.177216 
	C122.043411,81.423035 120.389816,80.038094 119.003281,78.498451 
	C117.650948,80.083755 115.229309,81.605606 115.130814,83.265312 
	C114.697365,90.569427 114.934067,97.913322 114.928680,105.242805 
	C114.927231,107.217949 114.928452,109.193092 114.928452,111.057510 
	C105.989731,113.402931 97.174843,105.512527 99.327187,97.051750 
	C103.341103,81.273239 107.719696,65.582306 112.255470,49.944527 
	C113.881004,44.340248 118.035172,40.937447 124.087303,40.906128 
	C146.406174,40.790634 168.726501,40.725491 191.044754,40.873367 
	C197.212265,40.914227 201.228821,44.575279 203.027603,51.022507 
	C207.090622,65.585213 211.128204,80.156418 214.990891,94.773117 
	C217.734238,105.154167 210.935272,112.708633 199.132874,111.557480 
	C199.132874,108.267235 199.132874,104.865448 199.132980,100.968475 
M169.685486,104.729904 
	C169.769135,101.572296 170.041199,98.406113 169.897842,95.258842 
	C169.583420,88.355370 164.723740,83.244072 158.089752,82.563110 
	C151.690552,81.906250 145.747711,86.307709 144.503601,93.187836 
	C143.890182,96.580078 143.741730,100.244743 144.380829,103.595818 
	C144.701294,105.276154 147.151199,107.614471 148.821548,107.777718 
	C154.266312,108.309845 159.803574,108.138077 165.286728,107.865181 
	C166.665024,107.796585 167.974091,106.337296 169.685486,104.729904 
M139.166351,76.719200 
	C138.934662,74.797012 139.134659,72.640511 138.276016,71.058632 
	C137.888763,70.345215 135.022476,70.186310 133.955368,70.853859 
	C132.872025,71.531570 131.874527,73.699974 132.142914,74.931473 
	C132.951355,78.641098 135.580032,78.852066 139.166351,76.719200 
M176.136566,77.700142 
	C178.055679,77.013138 180.241135,76.656456 181.739807,75.448021 
	C182.221130,75.059914 181.348831,71.777321 180.256073,71.000923 
	C179.201187,70.251450 175.826736,70.617287 175.631729,71.207275 
	C175.030197,73.027184 175.460815,75.188263 176.136566,77.700142 
z"/>
<path fill="#BE7D67" opacity="1.000000" stroke="none" 
	d="
M111.475433,219.417236 
	C107.795288,214.935440 107.129311,209.977539 108.053764,204.942551 
	C111.894569,184.023727 115.938660,163.142151 119.940163,142.253052 
	C120.119347,141.317657 120.611008,140.442123 121.120850,139.111389 
	C133.833069,148.955917 145.762573,148.120834 157.031769,136.682083 
	C168.195496,148.000351 180.117111,149.110092 193.427704,138.677765 
	C195.019485,146.647919 196.519592,153.896271 197.907776,161.166016 
	C200.556778,175.038467 203.132050,188.925003 205.756821,202.802124 
	C207.725571,213.210907 204.154556,220.879929 195.372925,224.245895 
	C195.244278,222.908417 195.028961,221.684525 195.024506,220.459854 
	C194.994202,212.126785 195.013062,203.793564 195.005676,195.460388 
	C195.002853,192.282440 195.425003,188.389038 190.958038,188.262924 
	C186.393555,188.134048 186.715668,192.031281 186.711853,195.222626 
	C186.697678,207.055710 186.739944,218.888977 186.693604,230.721893 
	C186.656189,240.276245 183.490219,243.105972 173.945023,243.003891 
	C170.515106,242.967209 169.758896,241.641876 169.784866,238.548645 
	C169.899597,224.883224 169.833420,211.216263 169.830841,197.549866 
	C169.830582,196.216629 169.854294,194.881943 169.802704,193.550430 
	C169.687180,190.568665 168.505417,187.731049 165.279755,188.379730 
	C163.629028,188.711700 161.432861,191.666000 161.344421,193.523712 
	C160.924866,202.337189 161.146118,211.181152 161.139709,220.014267 
	C161.138412,221.798370 161.139511,223.582474 161.139511,225.673309 
	C158.260513,225.673309 156.005432,225.673309 152.916077,225.673309 
	C152.916077,219.532730 152.916687,213.436295 152.915848,207.339874 
	C152.915268,203.006622 152.910400,198.673386 152.911880,194.340134 
	C152.912918,191.295334 152.402191,188.245148 148.664032,188.212799 
	C144.968124,188.180832 144.262390,191.155655 144.259888,194.234879 
	C144.248749,207.901276 144.401993,221.570755 144.122208,235.231476 
	C144.065842,237.982910 146.807678,242.749298 140.419998,242.958511 
	C132.337433,243.223251 128.248169,240.876007 127.808075,234.949005 
	C127.512589,230.969666 127.686073,226.954239 127.680565,222.954910 
	C127.667488,213.455109 127.829544,203.950592 127.544670,194.459259 
	C127.484192,192.444397 126.326958,189.806183 124.781158,188.640244 
	C122.222382,186.710190 119.127632,189.418213 119.075653,193.616440 
	C118.964241,202.614914 119.041397,211.615662 119.017357,220.615417 
	C119.014725,221.601471 118.855583,222.587112 118.649315,224.936691 
	C115.908272,222.873642 113.806755,221.291931 111.475433,219.417236 
z"/>
<path fill="#BA7A65" opacity="1.000000" stroke="none" 
	d="
M241.721069,114.886719 
	C250.176208,125.930969 252.376541,147.787689 235.771057,154.261139 
	C231.544678,155.908737 226.753159,156.490753 222.175766,156.746048 
	C217.568817,157.002975 212.890594,156.370544 208.276489,155.841202 
	C207.098877,155.706100 206.045700,154.486237 204.935364,153.764771 
	C205.113861,153.299973 205.292343,152.835190 205.470840,152.370407 
	C209.509506,152.370407 213.549469,152.308990 217.586288,152.395233 
	C219.737732,152.441208 221.886307,152.928436 224.031754,152.898575 
	C239.063919,152.689362 246.973206,142.587158 243.508011,127.970276 
	C242.821808,125.075745 241.452164,122.339798 240.811996,119.439278 
	C240.496063,118.007858 241.124603,116.367989 241.721069,114.886719 
z"/>
<path fill="#64352B" opacity="1.000000" stroke="none" 
	d="
M125.006363,212.000305 
	C125.006378,205.230499 125.006378,198.960587 125.006378,192.690689 
	C125.241768,192.692581 125.477158,192.694473 125.712547,192.696365 
	C125.712547,208.165039 125.712547,223.633713 125.712547,239.102402 
	C125.477150,239.109390 125.241753,239.116379 125.006355,239.123383 
	C125.006355,230.248993 125.006355,221.374588 125.006363,212.000305 
z"/>
<path fill="#64372D" opacity="1.000000" stroke="none" 
	d="
M117.006378,96.004120 
	C117.006393,91.237923 117.006393,86.967903 117.006393,82.697876 
	C117.335472,82.697762 117.664558,82.697655 117.993637,82.697548 
	C117.993637,87.214241 117.993629,91.730934 117.993629,96.247627 
	C117.993629,100.864235 117.993637,105.480843 117.993637,110.097443 
	C117.664551,110.109039 117.335457,110.120644 117.006371,110.132240 
	C117.006371,105.588257 117.006371,101.044273 117.006378,96.004120 
z"/>
<path fill="#4C241D" opacity="1.000000" stroke="none" 
	d="
M244.226593,246.945084 
	C242.165649,245.953690 240.486298,244.971619 238.374893,243.736877 
	C235.540802,244.838776 232.613525,249.532776 228.531586,245.016205 
	C224.865829,240.960144 229.840546,238.977219 230.699738,235.893036 
	C229.392044,232.931198 224.713501,230.303543 228.691925,226.526184 
	C232.314880,223.086319 235.375854,226.187103 238.353058,228.549896 
	C241.300476,226.795166 244.343506,222.294937 247.530457,226.598511 
	C249.020767,228.611008 247.785400,232.641953 247.134354,235.772400 
	C250.348557,242.952759 250.027252,244.955139 244.226593,246.945084 
z"/>
<path fill="#FB8B29" opacity="1.000000" stroke="none" 
	d="
M12.065864,82.887131 
	C15.366563,87.523216 18.224562,92.063950 21.684540,96.086960 
	C23.218788,97.870880 25.925322,99.547478 28.176477,99.654228 
	C36.820660,100.064156 45.505188,100.034142 54.153015,99.663330 
	C56.275211,99.572319 58.889946,98.043457 60.283638,96.354782 
	C64.179497,91.634315 67.554611,86.484070 71.598763,80.858711 
	C71.985100,82.239647 72.345192,82.928474 72.345863,83.617645 
	C72.358902,96.945770 72.637619,110.283333 72.230553,123.599670 
	C71.737373,139.732513 59.769188,152.528839 44.533073,153.962875 
	C28.600473,155.462479 14.482642,145.604263 10.609741,129.953415 
	C9.785581,126.622910 9.850412,123.028053 9.824094,119.552559 
	C9.735783,107.890579 9.757453,96.227119 9.885242,84.565857 
	C9.892149,83.935555 8.203897,80.131783 12.065864,82.887131 
M42.187462,128.986557 
	C39.283936,128.986557 36.380413,128.986557 32.444599,128.986557 
	C35.156490,133.265564 37.338272,136.708130 39.933651,140.803284 
	C42.624744,136.480286 44.742920,133.077621 47.157639,129.198593 
	C45.276958,129.101761 44.162312,129.044373 42.187462,128.986557 
M17.957253,120.523727 
	C18.271441,123.523956 20.070852,125.417145 22.869612,124.454666 
	C24.310900,123.959015 25.545559,121.479309 25.870436,119.711746 
	C26.029707,118.845200 23.663563,116.498238 22.855579,116.678841 
	C21.100008,117.071259 19.611141,118.656822 17.957253,120.523727 
M62.513927,123.904457 
	C62.702251,121.849373 63.403324,119.629105 62.821209,117.822243 
	C62.595055,117.120262 59.120892,116.676254 57.779636,117.372803 
	C56.717182,117.924576 55.778214,121.333885 56.314056,121.833382 
	C57.706604,123.131462 59.941711,123.525673 62.513927,123.904457 
z"/>
<path fill="#FB8C29" opacity="1.000000" stroke="none" 
	d="
M57.367218,182.864273 
	C60.590496,183.569427 63.493298,184.010239 66.911446,184.529312 
	C63.616982,197.725464 60.329487,210.987061 56.937527,224.221878 
	C56.756042,224.929993 55.600494,225.337677 55.062767,226.015594 
	C53.850609,227.543808 51.657089,229.327789 51.874779,230.685013 
	C52.126934,232.257111 54.368168,233.760864 56.056259,234.780411 
	C57.695175,235.770279 59.727280,236.109146 61.586720,236.733887 
	C61.464813,237.127136 61.342903,237.520386 61.220997,237.913635 
	C47.818855,237.913635 34.416710,237.913635 21.014566,237.913635 
	C20.871582,237.581207 20.728596,237.248764 20.585609,236.916336 
	C22.355379,236.211151 24.279263,235.746597 25.854456,234.737640 
	C27.671972,233.573502 29.863644,232.187103 30.544796,230.387070 
	C30.898394,229.452652 28.351500,227.412643 27.101864,225.882736 
	C26.421095,225.049271 25.317518,224.339432 25.077047,223.401459 
	C21.753401,210.437225 18.546663,197.443039 15.300072,184.411118 
	C26.303085,183.160980 26.314434,183.162567 27.875122,172.048355 
	C28.358494,168.606094 28.761854,165.152588 29.137062,162.212006 
	C37.036896,162.212006 44.714951,162.212006 52.562134,162.212006 
	C53.947586,168.510544 55.497169,175.555237 57.367218,182.864273 
z"/>
<path fill="#4E261E" opacity="1.000000" stroke="none" 
	d="
M169.500214,105.123512 
	C167.974091,106.337296 166.665024,107.796585 165.286728,107.865181 
	C159.803574,108.138077 154.266312,108.309845 148.821548,107.777718 
	C147.151199,107.614471 144.701294,105.276154 144.380829,103.595818 
	C143.741730,100.244743 143.890182,96.580078 144.503601,93.187836 
	C145.747711,86.307709 151.690552,81.906250 158.089752,82.563110 
	C164.723740,83.244072 169.583420,88.355370 169.897842,95.258842 
	C170.041199,98.406113 169.769135,101.572296 169.500214,105.123512 
M159.872009,98.650414 
	C159.802078,96.594627 160.094498,94.414719 159.456970,92.553352 
	C159.246414,91.938637 156.142380,91.478645 155.245255,92.142464 
	C154.065094,93.015709 153.053284,95.145073 153.211258,96.599380 
	C153.633743,100.488823 156.902100,98.596848 159.872009,98.650414 
z"/>
<path fill="#502720" opacity="1.000000" stroke="none" 
	d="
M138.885895,77.005539 
	C135.580032,78.852066 132.951355,78.641098 132.142914,74.931473 
	C131.874527,73.699974 132.872025,71.531570 133.955368,70.853859 
	C135.022476,70.186310 137.888763,70.345215 138.276016,71.058632 
	C139.134659,72.640511 138.934662,74.797012 138.885895,77.005539 
z"/>
<path fill="#502720" opacity="1.000000" stroke="none" 
	d="
M175.813538,77.458481 
	C175.460815,75.188263 175.030197,73.027184 175.631729,71.207275 
	C175.826736,70.617287 179.201187,70.251450 180.256073,71.000923 
	C181.348831,71.777321 182.221130,75.059914 181.739807,75.448021 
	C180.241135,76.656456 178.055679,77.013138 175.813538,77.458481 
z"/>
<path fill="#52281D" opacity="1.000000" stroke="none" 
	d="
M42.617561,128.986771 
	C44.162312,129.044373 45.276958,129.101761 47.157639,129.198593 
	C44.742920,133.077621 42.624744,136.480286 39.933651,140.803284 
	C37.338272,136.708130 35.156490,133.265564 32.444599,128.986557 
	C36.380413,128.986557 39.283936,128.986557 42.617561,128.986771 
z"/>
<path fill="#582B1E" opacity="1.000000" stroke="none" 
	d="
M17.985249,120.139175 
	C19.611141,118.656822 21.100008,117.071259 22.855579,116.678841 
	C23.663563,116.498238 26.029707,118.845200 25.870436,119.711746 
	C25.545559,121.479309 24.310900,123.959015 22.869612,124.454666 
	C20.070852,125.417145 18.271441,123.523956 17.985249,120.139175 
z"/>
<path fill="#582B1E" opacity="1.000000" stroke="none" 
	d="
M62.177269,124.092506 
	C59.941711,123.525673 57.706604,123.131462 56.314056,121.833382 
	C55.778214,121.333885 56.717182,117.924576 57.779636,117.372803 
	C59.120892,116.676254 62.595055,117.120262 62.821209,117.822243 
	C63.403324,119.629105 62.702251,121.849373 62.177269,124.092506 
z"/>
<path fill="#6A4E5A" opacity="1.000000" stroke="none" 
	d="
M159.473755,98.779381 
	C156.902100,98.596848 153.633743,100.488823 153.211258,96.599380 
	C153.053284,95.145073 154.065094,93.015709 155.245255,92.142464 
	C156.142380,91.478645 159.246414,91.938637 159.456970,92.553352 
	C160.094498,94.414719 159.802078,96.594627 159.473755,98.779381 
z"/>
</svg>