<svg version="1.1" id="Layer_1" xmlns="http://www.w3.org/2000/svg" xmlns:xlink="http://www.w3.org/1999/xlink" x="0px" y="0px"
	 width="100%" viewBox="0 0 256 256" enable-background="new 0 0 256 256" xml:space="preserve">
<path fill="#000000" opacity="1.000000" stroke="none" 
	d="
M151.000000,257.000000 
	C100.666672,257.000000 50.833340,257.000000 1.000007,257.000000 
	C1.000005,171.666672 1.000005,86.333351 1.000002,1.000018 
	C86.333321,1.000012 171.666641,1.000012 257.000000,1.000006 
	C257.000000,86.333313 257.000000,171.666626 257.000000,256.999969 
	C221.833328,257.000000 186.666672,257.000000 151.000000,257.000000 
M77.740555,112.530891 
	C56.760258,148.777176 59.264774,183.968689 82.568504,218.709564 
	C80.948997,218.811279 79.370377,218.992447 77.791321,218.996323 
	C67.300346,219.022095 56.809013,218.968430 46.318447,219.038391 
	C43.598095,219.056519 40.056076,218.477615 40.118057,222.770767 
	C40.178761,226.975555 43.450363,227.096985 46.611130,226.990875 
	C46.777466,226.985291 46.944157,226.990265 47.110680,226.990265 
	C97.067970,226.990265 147.025253,226.990417 196.982544,226.989029 
	C197.981522,226.988998 199.246140,227.355881 199.927322,226.885773 
	C201.646973,225.699020 203.104019,224.131744 204.666290,222.716934 
	C202.993042,221.482056 201.392227,219.319748 199.633240,219.182358 
	C193.840164,218.729797 187.989822,219.010101 182.161469,219.009705 
	C175.411224,219.009247 168.660965,219.009598 160.884308,219.009598 
	C171.861176,204.892990 178.222916,189.878601 180.757599,173.005447 
	C188.498016,167.831497 197.340790,163.742599 203.736328,157.244919 
	C215.068344,145.731873 222.308456,131.795990 224.239319,115.054848 
	C226.440323,95.971817 222.822235,78.774162 212.600967,62.715401 
	C215.091782,60.791512 216.179657,58.528355 213.448547,56.109371 
	C211.255585,54.167027 209.186859,54.635662 207.255264,57.001476 
	C205.809265,55.345905 204.363281,53.690331 203.488342,51.650753 
	C205.383224,49.440247 205.040253,46.870659 202.807510,45.839134 
	C201.367371,45.173798 198.965652,46.589775 196.334351,46.852551 
	C191.599670,43.894104 187.113632,40.394009 182.081329,38.083893 
	C169.522125,32.318489 156.431061,30.055870 142.429077,31.849852 
	C124.325668,34.169323 109.183388,41.578400 96.077232,54.978302 
	C93.146500,55.530262 91.009285,54.561844 89.455582,51.926983 
	C88.735031,50.705036 87.550262,49.720318 86.460960,48.758255 
	C79.384048,42.507973 70.674202,41.720787 61.845108,41.722820 
	C53.641525,41.724709 45.730629,42.978245 38.834969,48.078667 
	C31.462988,53.531403 30.881111,64.086548 38.068268,69.317551 
	C40.832386,71.329353 44.003761,73.056610 47.252186,74.079620 
	C60.209198,78.160095 72.895630,77.387756 84.993111,71.793602 
	C83.148865,76.863701 80.635971,81.803253 79.614670,87.034042 
	C78.021606,95.193260 75.375160,103.434708 77.740555,112.530891 
M45.280823,182.625198 
	C47.247261,182.656799 49.213703,182.688400 51.180145,182.720001 
	C51.164631,180.710129 51.197254,178.698181 51.111683,176.691299 
	C51.073448,175.794617 50.703007,174.913834 50.648357,174.015793 
	C50.505322,171.665222 50.453156,169.309158 50.364769,166.955292 
	C48.193928,167.304611 46.023083,167.653946 43.852242,168.003281 
	C41.285046,167.639954 37.463409,166.606949 36.334190,167.908997 
	C35.009007,169.436996 36.023964,172.994537 36.023964,175.671829 
	C36.139160,178.012589 35.282360,180.847443 36.321606,182.461426 
	C38.342419,185.599792 40.842297,183.520096 43.003868,181.794968 
	C43.290405,181.566284 44.139797,182.042877 45.280823,182.625198 
M56.813068,107.788132 
	C54.767689,105.608658 52.486115,105.911011 50.923706,107.991669 
	C50.223694,108.923889 50.371475,111.352592 51.133808,112.286697 
	C51.932365,113.265205 54.872742,114.005661 55.226189,113.555122 
	C56.297249,112.189857 56.569275,110.197739 56.813068,107.788132 
z"/>
<path fill="#F7D5F5" opacity="1.000000" stroke="none" 
	d="
M96.887962,54.969910 
	C109.183388,41.578400 124.325668,34.169323 142.429077,31.849852 
	C156.431061,30.055870 169.522125,32.318489 182.081329,38.083893 
	C187.113632,40.394009 191.599670,43.894104 196.703598,47.336143 
	C197.361115,51.526314 199.667999,52.433895 202.917297,52.034760 
	C204.363281,53.690331 205.809265,55.345905 207.436920,57.538910 
	C209.064972,59.726891 210.511383,61.377438 211.957809,63.027985 
	C222.822235,78.774162 226.440323,95.971817 224.239319,115.054848 
	C222.308456,131.795990 215.068344,145.731873 203.736328,157.244919 
	C197.340790,163.742599 188.498016,167.831497 180.270172,172.563202 
	C179.888916,168.126526 180.147614,164.129318 180.075485,160.138107 
	C179.713013,140.083344 174.718430,121.273712 161.006393,106.343224 
	C154.546768,99.309608 151.682663,92.523849 152.921463,83.462669 
	C153.590454,78.569267 152.410034,74.990517 146.414810,76.049835 
	C145.499664,66.402931 145.499664,66.402931 138.944077,64.801529 
	C139.756851,63.669849 140.859940,62.551731 142.000031,62.512627 
	C147.489029,62.324348 152.987991,62.430130 158.483429,62.425716 
	C164.311844,62.421032 170.154449,62.626579 175.958511,62.246407 
	C177.379272,62.153343 178.673859,60.134083 180.026459,59.000416 
	C178.657516,57.895031 177.433060,56.444527 175.874512,55.792007 
	C174.597214,55.257240 172.922211,55.667530 171.423492,55.667324 
	C160.780975,55.665844 150.138458,55.666538 139.575027,55.666538 
	C137.504288,46.874672 135.574417,45.342476 126.866669,45.326420 
	C123.869171,45.320896 120.871658,45.322918 117.874153,45.326187 
	C108.689186,45.336201 107.095444,46.539150 104.469238,55.872257 
	C102.021507,55.580921 99.454735,55.275417 96.887962,54.969910 
M208.559692,110.028923 
	C208.194656,109.013069 208.040619,107.836067 207.416138,107.018356 
	C206.428955,105.725769 205.126373,104.674072 203.957275,103.520424 
	C202.894440,104.764969 201.716507,105.933601 200.822205,107.289322 
	C200.433838,107.878067 200.628952,108.851707 200.559036,109.650528 
	C200.215973,109.362450 199.872910,109.074364 199.529831,108.786278 
	C197.676834,110.429146 195.823837,112.072021 193.970840,113.714890 
	C195.905411,115.275757 197.839981,116.836617 199.544571,118.211929 
	C201.065933,120.143028 202.520447,121.989281 203.974960,123.835526 
	C205.604767,121.959473 207.234573,120.083420 209.401611,117.588959 
	C210.465622,116.755409 212.303543,115.315567 214.141464,113.875717 
	C212.555740,112.614891 210.970032,111.354073 208.559692,110.028923 
M198.571228,71.898590 
	C200.277832,71.528427 202.079330,71.358871 203.616898,70.631424 
	C203.954544,70.471680 203.783127,67.828163 203.078110,67.222633 
	C202.160950,66.434860 199.442688,66.042366 199.296936,66.345108 
	C198.564590,67.866234 198.418182,69.669449 198.571228,71.898590 
M185.097336,66.536507 
	C185.024796,68.276299 184.750443,70.052078 185.048859,71.725716 
	C185.109039,72.063118 187.604828,72.495468 188.496506,72.006531 
	C189.388184,71.517586 190.384033,69.221870 190.107117,68.944855 
	C188.921036,67.758385 187.282059,67.024651 185.097336,66.536507 
M189.977982,50.248802 
	C189.220459,48.692722 188.632477,46.999168 187.570755,45.689747 
	C187.342270,45.407948 184.925980,46.210014 184.384705,47.063080 
	C183.826645,47.942593 184.049759,50.479515 184.411957,50.581367 
	C186.033386,51.037334 187.826340,50.883274 189.977982,50.248802 
M194.123825,60.227379 
	C195.802963,60.728329 197.467407,61.437672 199.173370,61.557976 
	C199.523087,61.582638 200.563141,59.265671 200.311035,58.276257 
	C200.060257,57.292107 198.073883,55.759632 197.732651,55.961559 
	C196.298187,56.810421 195.194733,58.218658 194.123825,60.227379 
z"/>
<path fill="#4F2720" opacity="1.000000" stroke="none" 
	d="
M96.482597,54.974106 
	C99.454735,55.275417 102.021507,55.580921 104.469238,55.872257 
	C107.095444,46.539150 108.689186,45.336201 117.874153,45.326187 
	C120.871658,45.322918 123.869171,45.320896 126.866669,45.326420 
	C135.574417,45.342476 137.504288,46.874672 139.575027,55.666538 
	C150.138458,55.666538 160.780975,55.665844 171.423492,55.667324 
	C172.922211,55.667530 174.597214,55.257240 175.874512,55.792007 
	C177.433060,56.444527 178.657516,57.895031 180.026459,59.000416 
	C178.673859,60.134083 177.379272,62.153343 175.958511,62.246407 
	C170.154449,62.626579 164.311844,62.421032 158.483429,62.425716 
	C152.987991,62.430130 147.489029,62.324348 142.000031,62.512627 
	C140.859940,62.551731 139.756851,63.669849 138.944077,64.801529 
	C145.499664,66.402931 145.499664,66.402931 146.414810,76.049835 
	C152.410034,74.990517 153.590454,78.569267 152.921463,83.462669 
	C151.682663,92.523849 154.546768,99.309608 161.006393,106.343224 
	C174.718430,121.273712 179.713013,140.083344 180.075485,160.138107 
	C180.147614,164.129318 179.888916,168.126526 179.894531,172.581406 
	C178.222916,189.878601 171.861176,204.892990 160.884308,219.009598 
	C168.660965,219.009598 175.411224,219.009247 182.161469,219.009705 
	C187.989822,219.010101 193.840164,218.729797 199.633240,219.182358 
	C201.392227,219.319748 202.993042,221.482056 204.666290,222.716934 
	C203.104019,224.131744 201.646973,225.699020 199.927322,226.885773 
	C199.246140,227.355881 197.981522,226.988998 196.982544,226.989029 
	C147.025253,226.990417 97.067970,226.990265 47.110680,226.990265 
	C46.944157,226.990265 46.777466,226.985291 46.611130,226.990875 
	C43.450363,227.096985 40.178761,226.975555 40.118057,222.770767 
	C40.056076,218.477615 43.598095,219.056519 46.318447,219.038391 
	C56.809013,218.968430 67.300346,219.022095 77.791321,218.996323 
	C79.370377,218.992447 80.948997,218.811279 82.568504,218.709564 
	C59.264774,183.968689 56.760258,148.777176 78.231300,112.153625 
	C80.460373,109.562744 81.803062,106.785103 84.008835,105.237892 
	C91.600906,99.912552 92.264282,92.444572 91.460579,84.264053 
	C90.981621,79.389099 91.240974,74.879501 98.057312,75.887039 
	C98.572319,71.070496 96.469833,65.125534 104.375725,65.717522 
	C104.586426,65.733299 105.241035,64.440163 105.059761,64.149139 
	C104.627594,63.455326 103.850273,62.569542 103.156242,62.518074 
	C100.516579,62.322346 97.784813,62.055874 95.223518,62.538239 
	C93.232178,62.913261 91.181007,64.061241 89.632599,65.411667 
	C87.840492,66.974625 86.569733,69.135384 85.072632,71.036606 
	C72.895630,77.387756 60.209198,78.160095 47.252186,74.079620 
	C44.003761,73.056610 40.832386,71.329353 38.068268,69.317551 
	C30.881111,64.086548 31.462988,53.531403 38.834969,48.078667 
	C45.730629,42.978245 53.641525,41.724709 61.845108,41.722820 
	C70.674202,41.720787 79.384048,42.507973 86.460960,48.758255 
	C87.550262,49.720318 88.735031,50.705036 89.455582,51.926983 
	C91.009285,54.561844 93.146500,55.530262 96.482597,54.974106 
M121.500046,100.004585 
	C117.003868,100.004585 112.454048,100.443802 108.023949,99.902756 
	C101.193398,99.068542 96.358032,101.858131 91.799927,106.553360 
	C79.148438,119.585457 72.946861,135.469955 71.453949,153.161819 
	C69.455704,176.842072 74.641685,198.529968 91.726822,216.136002 
	C93.334923,217.793152 96.257324,218.953857 98.594398,218.996964 
	C112.744072,219.257996 126.925095,218.636261 141.045486,219.330109 
	C148.315338,219.687317 153.084122,217.113968 156.961868,211.583084 
	C157.725586,210.493790 158.608032,209.487549 159.368149,208.395950 
	C171.047226,191.623581 174.727036,172.779205 172.850464,152.837936 
	C171.049438,133.699249 164.163971,116.723198 149.330414,103.637901 
	C146.432510,101.081535 143.468948,99.703140 139.480927,99.924995 
	C133.836609,100.238983 128.161758,100.004585 121.500046,100.004585 
M43.020241,63.542297 
	C55.059124,71.123276 67.506584,71.006508 79.928177,64.902229 
	C85.545906,62.141541 85.645935,56.950569 80.743454,53.483006 
	C72.198807,47.439312 52.461887,47.483627 44.077591,53.565331 
	C40.045425,56.490131 39.647236,58.877075 43.020241,63.542297 
M140.389359,93.067581 
	C142.153198,93.067581 143.917053,93.067581 145.711197,93.067581 
	C145.711197,89.397224 145.711197,86.344604 145.711197,83.377090 
	C129.741928,83.377090 114.093651,83.377090 98.463104,83.377090 
	C98.463104,86.713120 98.463104,89.635994 98.463104,93.067604 
	C112.288551,93.067604 125.852379,93.067604 140.389359,93.067581 
M129.045807,52.079643 
	C124.722824,52.067822 120.382622,51.835468 116.086746,52.170822 
	C114.693665,52.279572 112.540802,53.642826 112.226517,54.827736 
	C109.922462,63.514641 111.927017,65.976662 120.765244,65.975517 
	C123.425667,65.975174 126.093269,66.080544 128.742874,65.909508 
	C129.762039,65.843727 131.120560,65.420265 131.662643,64.677055 
	C133.046326,62.780018 131.676956,54.151722 129.045807,52.079643 
M105.251114,73.521065 
	C106.245392,74.344643 107.225960,75.863503 108.236092,75.883430 
	C117.546928,76.067108 126.863533,76.040901 136.176361,75.917274 
	C137.138809,75.904503 138.087585,74.862175 139.042709,74.297562 
	C138.002243,73.838951 136.965073,72.991051 135.920776,72.982185 
	C125.944267,72.897461 115.966553,72.954712 105.251114,73.521065 
z"/>
<path fill="#F6D4F3" opacity="1.000000" stroke="none" 
	d="
M85.032867,71.415100 
	C86.569733,69.135384 87.840492,66.974625 89.632599,65.411667 
	C91.181007,64.061241 93.232178,62.913261 95.223518,62.538239 
	C97.784813,62.055874 100.516579,62.322346 103.156242,62.518074 
	C103.850273,62.569542 104.627594,63.455326 105.059761,64.149139 
	C105.241035,64.440163 104.586426,65.733299 104.375725,65.717522 
	C96.469833,65.125534 98.572319,71.070496 98.057312,75.887039 
	C91.240974,74.879501 90.981621,79.389099 91.460579,84.264053 
	C92.264282,92.444572 91.600906,99.912552 84.008835,105.237892 
	C81.803062,106.785103 80.460373,109.562744 78.395798,111.845474 
	C75.375160,103.434708 78.021606,95.193260 79.614670,87.034042 
	C80.635971,81.803253 83.148865,76.863701 85.032867,71.415100 
z"/>
<path fill="#4C241D" opacity="1.000000" stroke="none" 
	d="
M45.004669,182.409012 
	C44.139797,182.042877 43.290405,181.566284 43.003868,181.794968 
	C40.842297,183.520096 38.342419,185.599792 36.321606,182.461426 
	C35.282360,180.847443 36.139160,178.012589 36.023964,175.671829 
	C36.023964,172.994537 35.009007,169.436996 36.334190,167.908997 
	C37.463409,166.606949 41.285046,167.639954 43.852242,168.003281 
	C46.023083,167.653946 48.193928,167.304611 50.364769,166.955292 
	C50.453156,169.309158 50.505322,171.665222 50.648357,174.015793 
	C50.703007,174.913834 51.073448,175.794617 51.111683,176.691299 
	C51.197254,178.698181 51.164631,180.710129 51.180145,182.720001 
	C49.213703,182.688400 47.247261,182.656799 45.004669,182.409012 
z"/>
<path fill="#4C241D" opacity="1.000000" stroke="none" 
	d="
M56.982834,108.118988 
	C56.569275,110.197739 56.297249,112.189857 55.226189,113.555122 
	C54.872742,114.005661 51.932365,113.265205 51.133808,112.286697 
	C50.371475,111.352592 50.223694,108.923889 50.923706,107.991669 
	C52.486115,105.911011 54.767689,105.608658 56.982834,108.118988 
z"/>
<path fill="#4F2720" opacity="1.000000" stroke="none" 
	d="
M203.202820,51.842754 
	C199.667999,52.433895 197.361115,51.526314 197.033875,47.446358 
	C198.965652,46.589775 201.367371,45.173798 202.807510,45.839134 
	C205.040253,46.870659 205.383224,49.440247 203.202820,51.842754 
z"/>
<path fill="#4E2720" opacity="1.000000" stroke="none" 
	d="
M212.279388,62.871693 
	C210.511383,61.377438 209.064972,59.726891 207.720337,57.717941 
	C209.186859,54.635662 211.255585,54.167027 213.448547,56.109371 
	C216.179657,58.528355 215.091782,60.791512 212.279388,62.871693 
z"/>
<path fill="#542C27" opacity="1.000000" stroke="none" 
	d="
M208.972000,110.061081 
	C210.970032,111.354073 212.555740,112.614891 214.141464,113.875717 
	C212.303543,115.315567 210.465622,116.755409 209.401611,117.588959 
	C207.234573,120.083420 205.604767,121.959473 203.974960,123.835526 
	C202.520447,121.989281 201.065933,120.143028 199.544571,118.211929 
	C197.839981,116.836617 195.905411,115.275757 193.970840,113.714890 
	C195.823837,112.072021 197.676834,110.429146 199.529831,108.786278 
	C199.872910,109.074364 200.215973,109.362450 200.559036,109.650528 
	C200.628952,108.851707 200.433838,107.878067 200.822205,107.289322 
	C201.716507,105.933601 202.894440,104.764969 203.957275,103.520416 
	C205.126373,104.674072 206.428955,105.725769 207.416138,107.018356 
	C208.040619,107.836067 208.194656,109.013069 208.972000,110.061081 
z"/>
<path fill="#5B3430" opacity="1.000000" stroke="none" 
	d="
M198.318604,71.636093 
	C198.418182,69.669449 198.564590,67.866234 199.296936,66.345108 
	C199.442688,66.042366 202.160950,66.434860 203.078110,67.222633 
	C203.783127,67.828163 203.954544,70.471680 203.616898,70.631424 
	C202.079330,71.358871 200.277832,71.528427 198.318604,71.636093 
z"/>
<path fill="#572F2B" opacity="1.000000" stroke="none" 
	d="
M185.452759,66.331184 
	C187.282059,67.024651 188.921036,67.758385 190.107117,68.944855 
	C190.384033,69.221870 189.388184,71.517586 188.496506,72.006531 
	C187.604828,72.495468 185.109039,72.063118 185.048859,71.725716 
	C184.750443,70.052078 185.024796,68.276299 185.452759,66.331184 
z"/>
<path fill="#552D28" opacity="1.000000" stroke="none" 
	d="
M189.767685,50.599113 
	C187.826340,50.883274 186.033386,51.037334 184.411957,50.581367 
	C184.049759,50.479515 183.826645,47.942593 184.384705,47.063080 
	C184.925980,46.210014 187.342270,45.407948 187.570755,45.689747 
	C188.632477,46.999168 189.220459,48.692722 189.767685,50.599113 
z"/>
<path fill="#572F2B" opacity="1.000000" stroke="none" 
	d="
M194.046967,59.824753 
	C195.194733,58.218658 196.298187,56.810421 197.732651,55.961559 
	C198.073883,55.759632 200.060257,57.292107 200.311035,58.276257 
	C200.563141,59.265671 199.523087,61.582638 199.173370,61.557976 
	C197.467407,61.437672 195.802963,60.728329 194.046967,59.824753 
z"/>
<path fill="#F2ADAA" opacity="1.000000" stroke="none" 
	d="
M122.000008,100.004585 
	C128.161758,100.004585 133.836609,100.238983 139.480927,99.924995 
	C143.468948,99.703140 146.432510,101.081535 149.330414,103.637901 
	C164.163971,116.723198 171.049438,133.699249 172.850464,152.837936 
	C174.727036,172.779205 171.047226,191.623581 159.368149,208.395950 
	C158.608032,209.487549 157.725586,210.493790 156.961868,211.583084 
	C153.084122,217.113968 148.315338,219.687317 141.045486,219.330109 
	C126.925095,218.636261 112.744072,219.257996 98.594398,218.996964 
	C96.257324,218.953857 93.334923,217.793152 91.726822,216.136002 
	C74.641685,198.529968 69.455704,176.842072 71.453949,153.161819 
	C72.946861,135.469955 79.148438,119.585457 91.799927,106.553360 
	C96.358032,101.858131 101.193398,99.068542 108.023949,99.902756 
	C112.454048,100.443802 117.003868,100.004585 122.000008,100.004585 
M125.907295,155.287582 
	C116.850990,153.008331 111.523148,156.629074 109.876091,165.714447 
	C109.503578,167.769226 107.994102,169.830353 106.512939,171.430237 
	C102.685394,175.564606 101.542908,180.939453 103.906517,185.609634 
	C106.320686,190.379730 111.164993,192.592667 116.845451,191.961151 
	C119.898727,191.621735 123.062843,191.584534 126.104973,191.973663 
	C134.283325,193.019745 140.724655,187.363419 140.192871,179.314728 
	C139.998596,176.374100 129.103394,157.459106 125.907295,155.287582 
M105.317863,131.271637 
	C97.569962,135.933456 95.539864,145.770889 100.883034,152.761932 
	C103.875908,156.677826 108.336960,157.851028 112.358566,155.779877 
	C117.333282,153.217896 119.827209,146.199799 118.105492,139.607620 
	C116.458427,133.301285 112.827263,130.714539 105.317863,131.271637 
M127.742271,153.758392 
	C133.911453,160.010574 142.257538,155.919601 143.746155,148.736282 
	C144.560013,144.809021 144.185593,140.032043 142.588562,136.414597 
	C141.469879,133.880707 137.586884,131.807083 134.561371,131.064774 
	C130.652115,130.105637 127.685204,132.896530 125.916290,136.376892 
	C122.954987,142.203308 123.378510,147.859451 127.742271,153.758392 
M86.323212,162.057007 
	C87.235077,165.306290 87.478027,168.979492 89.208435,171.710052 
	C92.138412,176.333511 97.589348,177.232819 101.307404,174.407562 
	C104.898895,171.678497 105.673691,167.920990 104.544411,163.724564 
	C103.189735,158.690598 99.257828,155.128876 94.910591,154.975296 
	C90.444519,154.817566 87.835464,157.210922 86.323212,162.057007 
M138.909393,164.872742 
	C138.720825,172.112274 141.718994,176.134399 147.177048,175.964035 
	C152.120499,175.809723 156.738312,171.142883 157.571579,165.459137 
	C158.221970,161.022736 155.837738,156.695862 152.009094,155.364502 
	C147.607346,153.833862 142.596558,156.446320 139.883667,161.726562 
	C139.508194,162.457397 139.302277,163.275345 138.909393,164.872742 
z"/>
<path fill="#6B4F5A" opacity="1.000000" stroke="none" 
	d="
M42.759834,63.283890 
	C39.647236,58.877075 40.045425,56.490131 44.077591,53.565331 
	C52.461887,47.483627 72.198807,47.439312 80.743454,53.483006 
	C85.645935,56.950569 85.545906,62.141541 79.928177,64.902229 
	C67.506584,71.006508 55.059124,71.123276 42.759834,63.283890 
z"/>
<path fill="#9DC0E3" opacity="1.000000" stroke="none" 
	d="
M139.902771,93.067596 
	C125.852379,93.067604 112.288551,93.067604 98.463104,93.067604 
	C98.463104,89.635994 98.463104,86.713120 98.463104,83.377090 
	C114.093651,83.377090 129.741928,83.377090 145.711197,83.377090 
	C145.711197,86.344604 145.711197,89.397224 145.711197,93.067581 
	C143.917053,93.067581 142.153198,93.067581 139.902771,93.067596 
z"/>
<path fill="#6A4E59" opacity="1.000000" stroke="none" 
	d="
M129.495087,52.147758 
	C131.676956,54.151722 133.046326,62.780018 131.662643,64.677055 
	C131.120560,65.420265 129.762039,65.843727 128.742874,65.909508 
	C126.093269,66.080544 123.425667,65.975174 120.765244,65.975517 
	C111.927017,65.976662 109.922462,63.514641 112.226517,54.827736 
	C112.540802,53.642826 114.693665,52.279572 116.086746,52.170822 
	C120.382622,51.835468 124.722824,52.067822 129.495087,52.147758 
z"/>
<path fill="#9DC1E3" opacity="1.000000" stroke="none" 
	d="
M105.620148,73.246140 
	C115.966553,72.954712 125.944267,72.897461 135.920776,72.982185 
	C136.965073,72.991051 138.002243,73.838951 139.042709,74.297562 
	C138.087585,74.862175 137.138809,75.904503 136.176361,75.917274 
	C126.863533,76.040901 117.546928,76.067108 108.236092,75.883430 
	C107.225960,75.863503 106.245392,74.344643 105.620148,73.246140 
z"/>
<path fill="#502820" opacity="1.000000" stroke="none" 
	d="
M126.238785,155.476151 
	C129.103394,157.459106 139.998596,176.374100 140.192871,179.314728 
	C140.724655,187.363419 134.283325,193.019745 126.104973,191.973663 
	C123.062843,191.584534 119.898727,191.621735 116.845451,191.961151 
	C111.164993,192.592667 106.320686,190.379730 103.906517,185.609634 
	C101.542908,180.939453 102.685394,175.564606 106.512939,171.430237 
	C107.994102,169.830353 109.503578,167.769226 109.876091,165.714447 
	C111.523148,156.629074 116.850990,153.008331 126.238785,155.476151 
M118.641006,162.289719 
	C116.397820,167.839142 114.910347,173.553711 110.349419,178.182861 
	C107.565445,181.008469 111.042061,185.211212 115.509583,185.071335 
	C119.425972,184.948730 123.374413,185.297211 127.258011,184.918243 
	C129.146240,184.734009 131.974594,183.761536 132.477661,182.428818 
	C133.114227,180.742401 132.130585,178.187927 131.283768,176.253937 
	C129.742996,172.735107 127.499275,169.511978 126.089546,165.951385 
	C124.765427,162.607010 123.420784,160.162125 118.641006,162.289719 
z"/>
<path fill="#522922" opacity="1.000000" stroke="none" 
	d="
M105.705612,131.161072 
	C112.827263,130.714539 116.458427,133.301285 118.105492,139.607620 
	C119.827209,146.199799 117.333282,153.217896 112.358566,155.779877 
	C108.336960,157.851028 103.875908,156.677826 100.883034,152.761932 
	C95.539864,145.770889 97.569962,135.933456 105.705612,131.161072 
M105.198769,141.088547 
	C105.117805,141.903091 104.714256,142.870560 105.014702,143.504288 
	C106.029411,145.644669 107.293961,147.666626 108.462990,149.733856 
	C109.600731,147.398315 111.219604,145.153137 111.682045,142.690765 
	C111.929367,141.373871 110.183273,139.682571 109.336807,138.160248 
	C108.057770,138.886856 106.778732,139.613464 105.198769,141.088547 
z"/>
<path fill="#512821" opacity="1.000000" stroke="none" 
	d="
M127.491974,153.477386 
	C123.378510,147.859451 122.954987,142.203308 125.916290,136.376892 
	C127.685204,132.896530 130.652115,130.105637 134.561371,131.064774 
	C137.586884,131.807083 141.469879,133.880707 142.588562,136.414597 
	C144.185593,140.032043 144.560013,144.809021 143.746155,148.736282 
	C142.257538,155.919601 133.911453,160.010574 127.491974,153.477386 
M135.262970,138.085037 
	C133.850433,139.528687 131.464355,140.849487 131.262924,142.445938 
	C130.988953,144.617249 132.331665,147.020172 133.216675,149.229401 
	C133.261490,149.341278 136.140701,148.947205 136.659241,148.128983 
	C138.715027,144.885010 138.477875,141.536453 135.262970,138.085037 
z"/>
<path fill="#512821" opacity="1.000000" stroke="none" 
	d="
M86.439667,161.682770 
	C87.835464,157.210922 90.444519,154.817566 94.910591,154.975296 
	C99.257828,155.128876 103.189735,158.690598 104.544411,163.724564 
	C105.673691,167.920990 104.898895,171.678497 101.307404,174.407562 
	C97.589348,177.232819 92.138412,176.333511 89.208435,171.710052 
	C87.478027,168.979492 87.235077,165.306290 86.439667,161.682770 
M97.042168,163.606567 
	C95.769325,163.464218 94.496490,163.321869 93.223640,163.179535 
	C94.054779,165.232056 94.885910,167.284576 95.717041,169.337097 
	C96.419067,169.116653 97.121094,168.896194 97.823120,168.675751 
	C97.705139,167.203064 97.587151,165.730377 97.042168,163.606567 
z"/>
<path fill="#512821" opacity="1.000000" stroke="none" 
	d="
M138.963623,164.462860 
	C139.302277,163.275345 139.508194,162.457397 139.883667,161.726562 
	C142.596558,156.446320 147.607346,153.833862 152.009094,155.364502 
	C155.837738,156.695862 158.221970,161.022736 157.571579,165.459137 
	C156.738312,171.142883 152.120499,175.809723 147.177048,175.964035 
	C141.718994,176.134399 138.720825,172.112274 138.963623,164.462860 
M150.166885,166.511429 
	C150.294983,165.082825 150.423080,163.654221 150.551163,162.225616 
	C149.967651,161.994888 149.384140,161.764175 148.800629,161.533447 
	C147.679504,163.258972 146.454605,164.931274 145.520142,166.752579 
	C145.320541,167.141632 146.366089,168.698059 146.514114,168.652985 
	C147.659424,168.304260 148.725143,167.694138 150.166885,166.511429 
z"/>
<path fill="#BC7C66" opacity="1.000000" stroke="none" 
	d="
M118.968773,162.086380 
	C123.420784,160.162125 124.765427,162.607010 126.089546,165.951385 
	C127.499275,169.511978 129.742996,172.735107 131.283768,176.253937 
	C132.130585,178.187927 133.114227,180.742401 132.477661,182.428818 
	C131.974594,183.761536 129.146240,184.734009 127.258011,184.918243 
	C123.374413,185.297211 119.425972,184.948730 115.509583,185.071335 
	C111.042061,185.211212 107.565445,181.008469 110.349419,178.182861 
	C114.910347,173.553711 116.397820,167.839142 118.968773,162.086380 
z"/>
<path fill="#B97964" opacity="1.000000" stroke="none" 
	d="
M105.349236,140.714310 
	C106.778732,139.613464 108.057770,138.886856 109.336807,138.160248 
	C110.183273,139.682571 111.929367,141.373871 111.682045,142.690765 
	C111.219604,145.153137 109.600731,147.398315 108.462990,149.733856 
	C107.293961,147.666626 106.029411,145.644669 105.014702,143.504288 
	C104.714256,142.870560 105.117805,141.903091 105.349236,140.714310 
z"/>
<path fill="#B87964" opacity="1.000000" stroke="none" 
	d="
M135.606873,138.287750 
	C138.477875,141.536453 138.715027,144.885010 136.659241,148.128983 
	C136.140701,148.947205 133.261490,149.341278 133.216675,149.229401 
	C132.331665,147.020172 130.988953,144.617249 131.262924,142.445938 
	C131.464355,140.849487 133.850433,139.528687 135.606873,138.287750 
z"/>
<path fill="#B47661" opacity="1.000000" stroke="none" 
	d="
M97.255669,163.932129 
	C97.587151,165.730377 97.705139,167.203064 97.823120,168.675751 
	C97.121094,168.896194 96.419067,169.116653 95.717041,169.337097 
	C94.885910,167.284576 94.054779,165.232056 93.223648,163.179535 
	C94.496490,163.321869 95.769325,163.464218 97.255669,163.932129 
z"/>
<path fill="#B1735F" opacity="1.000000" stroke="none" 
	d="
M149.991211,166.838196 
	C148.725143,167.694138 147.659424,168.304260 146.514114,168.652985 
	C146.366089,168.698059 145.320541,167.141632 145.520142,166.752579 
	C146.454605,164.931274 147.679504,163.258972 148.800629,161.533447 
	C149.384140,161.764175 149.967651,161.994888 150.551163,162.225616 
	C150.423080,163.654221 150.294983,165.082825 149.991211,166.838196 
z"/>
</svg>